<svg width="16" height="16" viewBox="0 0 16 16" fill="none" xmlns="http://www.w3.org/2000/svg">
<path d="M7.85365 0.96875C5.87448 0.96875 5.6276 0.977083 4.85052 1.0125C4.07552 1.04792 3.54635 1.17083 3.08281 1.35104C2.60365 1.5375 2.1974 1.78646 1.79323 2.19167C1.42254 2.55526 1.13566 2.99535 0.952604 3.48125C0.772396 3.94479 0.649479 4.47396 0.614062 5.24896C0.578646 6.02604 0.570312 6.27396 0.570312 8.25208C0.570312 10.2302 0.578646 10.4781 0.614062 11.2542C0.649479 12.0302 0.772396 12.5594 0.952604 13.0229C1.13906 13.5021 1.38802 13.9083 1.79323 14.3125C2.1974 14.7177 2.60365 14.9667 3.08281 15.1521C3.54635 15.3323 4.07552 15.4552 4.85052 15.4906C5.6276 15.526 5.87552 15.5344 7.85365 15.5344C9.83177 15.5344 10.0797 15.526 10.8557 15.4906C11.6318 15.4552 12.1609 15.3323 12.6245 15.1521C13.1102 14.9692 13.5503 14.6827 13.9141 14.3125C14.3193 13.9073 14.5682 13.501 14.7536 13.0229C14.9339 12.5594 15.0568 12.0302 15.0922 11.2542C15.1276 10.4781 15.1359 10.2302 15.1359 8.25208C15.1359 6.27292 15.1276 6.02604 15.0922 5.24896C15.0568 4.47396 14.9339 3.94479 14.7536 3.48125C14.5708 2.99548 14.2843 2.5554 13.9141 2.19167C13.5504 1.82103 13.1103 1.53416 12.6245 1.35104C12.1609 1.17083 11.6318 1.04792 10.8557 1.0125C10.0797 0.977083 9.83177 0.96875 7.85365 0.96875ZM7.85365 2.28125C9.79844 2.28125 10.0286 2.28854 10.7964 2.32292C11.5068 2.35625 11.8922 2.475 12.1484 2.57396C12.4891 2.70625 12.7318 2.86458 12.9859 3.11875C13.2411 3.37396 13.3984 3.61667 13.5307 3.95625C13.6307 4.21354 13.7495 4.59896 13.7818 5.30833C13.8172 6.07708 13.8234 6.30729 13.8234 8.25208C13.8234 10.1969 13.8172 10.4271 13.7818 11.1948C13.7495 11.9052 13.6307 12.2906 13.5318 12.5469C13.3984 12.8875 13.2401 13.1302 12.9859 13.3844C12.7509 13.6262 12.4648 13.8124 12.1484 13.9292C11.8922 14.0292 11.5068 14.1479 10.7964 14.1792C10.0286 14.2156 9.79844 14.2229 7.85365 14.2229C5.90885 14.2229 5.67865 14.2156 4.91094 14.1802C4.20052 14.1479 3.8151 14.0292 3.55781 13.9302C3.24136 13.8131 2.95518 13.6266 2.72031 13.3844C2.47844 13.1494 2.29228 12.8632 2.17552 12.5469C2.07656 12.2906 1.95677 11.9052 1.92552 11.1948C1.8901 10.4271 1.88281 10.1969 1.88281 8.25208C1.88281 6.30729 1.8901 6.07708 1.92448 5.30833C1.95781 4.59896 2.07656 4.21354 2.17552 3.95625C2.30781 3.61667 2.46615 3.37292 2.72031 3.11875C2.97552 2.86458 3.21823 2.70625 3.55781 2.57396C3.8151 2.475 4.20052 2.35521 4.91094 2.32396C5.67865 2.28854 5.90885 2.28125 7.85365 2.28125Z" fill="white"/>
<path d="M7.85286 10.6793C7.20916 10.6793 6.59182 10.4236 6.13666 9.96839C5.68149 9.51322 5.42578 8.89588 5.42578 8.25218C5.42578 7.60848 5.68149 6.99114 6.13666 6.53597C6.59182 6.08081 7.20916 5.8251 7.85286 5.8251C8.49657 5.8251 9.11391 6.08081 9.56907 6.53597C10.0242 6.99114 10.2799 7.60848 10.2799 8.25218C10.2799 8.89588 10.0242 9.51322 9.56907 9.96839C9.11391 10.4236 8.49657 10.6793 7.85286 10.6793ZM7.85286 4.5126C7.36178 4.5126 6.8755 4.60932 6.42179 4.79726C5.96808 4.98519 5.55583 5.26064 5.20858 5.6079C4.86133 5.95515 4.58587 6.3674 4.39794 6.8211C4.21001 7.27481 4.11328 7.76109 4.11328 8.25218C4.11328 8.74327 4.21001 9.22955 4.39794 9.68326C4.58587 10.137 4.86133 10.5492 5.20858 10.8965C5.55583 11.2437 5.96808 11.5192 6.42179 11.7071C6.8755 11.895 7.36178 11.9918 7.85286 11.9918C8.84466 11.9918 9.79584 11.5978 10.4971 10.8965C11.1985 10.1952 11.5924 9.24398 11.5924 8.25218C11.5924 7.26038 11.1985 6.3092 10.4971 5.6079C9.79584 4.90659 8.84466 4.5126 7.85286 4.5126ZM12.6143 4.36468C12.6143 4.59647 12.5222 4.81876 12.3583 4.98266C12.1944 5.14656 11.9722 5.23864 11.7404 5.23864C11.5086 5.23864 11.2863 5.14656 11.1224 4.98266C10.9585 4.81876 10.8664 4.59647 10.8664 4.36468C10.8664 4.13289 10.9585 3.9106 11.1224 3.7467C11.2863 3.5828 11.5086 3.49072 11.7404 3.49072C11.9722 3.49072 12.1944 3.5828 12.3583 3.7467C12.5222 3.9106 12.6143 4.13289 12.6143 4.36468Z" fill="white"/>
</svg>
