<svg width="15" height="13" viewBox="0 0 15 13" fill="none" xmlns="http://www.w3.org/2000/svg">
<path d="M4.81328 12.5938C10.357 12.5938 13.3883 8.00002 13.3883 4.01877C13.3883 3.88752 13.3883 3.75627 13.382 3.63127C13.9724 3.20345 14.4824 2.67445 14.8883 2.06877C14.3377 2.31138 13.7543 2.47144 13.157 2.54377C13.7873 2.16754 14.2584 1.57413 14.482 0.875017C13.8903 1.22473 13.2437 1.47196 12.5695 1.60627C12.2878 1.30519 11.9471 1.06543 11.5685 0.901978C11.19 0.738522 10.7818 0.654876 10.3695 0.656267C9.57069 0.656681 8.80469 0.974201 8.23983 1.53907C7.67497 2.10393 7.35745 2.86993 7.35703 3.66877C7.35703 3.90627 7.38203 4.13752 7.43828 4.35627C4.93203 4.23127 2.71328 3.03127 1.22578 1.20627C0.959872 1.666 0.819754 2.18767 0.819531 2.71877C0.818724 3.21507 0.94106 3.70382 1.17558 4.14123C1.41009 4.57863 1.74947 4.95101 2.16328 5.22502C1.6855 5.21184 1.21802 5.08317 0.800781 4.85002V4.88752C0.801011 5.58367 1.04196 6.25833 1.48279 6.79712C1.92362 7.33591 2.53721 7.70569 3.21953 7.84377C2.96953 7.91252 2.70078 7.95002 2.42578 7.95002C2.23203 7.95002 2.04453 7.93127 1.85703 7.89377C2.04827 8.49287 2.4224 9.01702 2.92686 9.39255C3.43131 9.76809 4.04074 9.97616 4.66953 9.98752C3.60101 10.8238 2.28267 11.2772 0.925781 11.275C0.682031 11.275 0.444531 11.2625 0.207031 11.2313C1.57701 12.1243 3.17795 12.5978 4.81328 12.5938Z" fill="white"/>
</svg>
